<?xml version="1.0" encoding="UTF-8"?>
<svg version="1.1" viewBox="0 0 1024 1024" width="1280" height="1280" xmlns="http://www.w3.org/2000/svg">
<path transform="translate(0)" d="m0 0h1024v1024h-1024z" fill="#C8BAAA"/>
<path transform="translate(525,361)" d="m0 0h89l36 1 23 3 13 1 8 3 21 6 10 6 6 5 9 12 4 7 4 13 1 6-2 14-6 12-6 7-8 4-6 2-13 1h-46l6 9 15 16 5 7 51 2 16 3 14 6 9 8 4 8 1 3v36h2l4 7v11l-4 8-7 7-10 4h-10l-4 10-7 8-3 2-1 3 6-1h53l-1 7-7 16-12 23-14 22-9 12-9 11-11 12-20 20-11 9-13 10-16 11-15 9-24 12-28 11-23 6-26 5-25 3-18 1h-23l-26-2-36-6-22-6-22-8-23-10-25-13-19-12-16-12-14-12-13-13-7-8-13-16-11-14-10-15-9-16-14-28-1-8 17-1h95l11 1-5-5-6-7-4-11-11 1h-58l-12-6-8-9-3-7v-145l2-11 6-12 8-8 15-8 5-1h95l7-13 5-4 5-2 44-1 11 1 7 3 6 5 8 11 6-1 17-9 18-12 14-6z" fill="#20263E"/>
<path transform="translate(486,205)" d="m0 0h46l21 1 28 5 25 7 24 8 25 12 22 12 11 7 12 8 13 11 14 12 9 9 9 11 12 14 7 10 4 5 4 7 10 15 9 17 4 10 5 10 6 15 9 30 5 26v26 2l2 2v43l-3 21-6 30-10 30-29 1h-31l1-4 8-7 4-8 2-5h10l10-4 8-9 2-5v-11l-3-5v-2h-2l-1-4v-32l-4-9-6-7-14-7-12-3-7-1-51-2-9-11-13-14-5-8v-1h53l10-2 9-4 5-4 7-12 2-7 1-12-3-12-4-9-8-11-2-4-4-2-8-6-13-5-19-5-1-1-36-4-36-1h-89l-17 5-16 8-18 12-15 7-4-1-9-12-5-4-6-2-11-1-44 1-8 4-5 8-3 6-1 1h-95l-9 3-11 6-7 7-6 12-2 11v145l5 10 8 7 9 4h58l11-1 4 9 3 6 8 7v2h-123l-1 2-4-13-5-15-6-24-4-27v-66l3-22 4-19 7-25 7-17 4-10 13-25 7-11 9-14h2l2-5 12-16 11-13 5-6h2l2-4h2v-2l8-7 13-12 33-22 12-7 23-11 23-9 16-6 25-6 20-3z" fill="#F7A41C"/>
<path transform="translate(526,377)" d="m0 0h70l13 1 12 5 6 4 6 7 8 15 2 8v11l-3 7-6 7-7 4-6 1-85 1-5 3-1 2-1 122-1 9h-35l-1-2 9-9 3-8v-113l-5-10-8-7-13-4h-35l-8 3-6 4-6 8-2 5-1 77v35l3 8 8 10 3 4h-32l-3-9-6-11-9-8-11-5-4-1h-12l-10 3-8 5-7 7-6 12-2 6h-68l-7-8v-149l5-9 8-6 10-3 76 1h105l12-2 16-8 11-7 16-10z" fill="#FAFBF6"/>
<path transform="translate(548,463)" d="m0 0h56l7 9 11 12 9 11 8 9 5 5 3 1 86 4 17 2 9 4 6 4 1 4h-20l-15-1h-23l-5 2-3 4-1 10 2 6-1 9-8 7-2 5-10-10-7-5-12-4h-9l-13 4-9 7-6 7-4 9-2 5-34 1h-38l-1-4v-114z" fill="#F7F7F1"/>
<path transform="translate(749,422)" d="m0 0 7 6 12 13 7 6 7 8 6 6v2h2v2h2l7 8 9 9 7 8 7 7v43l-3 21-6 30-10 30-29 1h-31l1-4 8-7 4-8 2-5h10l10-4 8-9 2-5v-11l-3-5v-2h-2l-1-4v-32l-4-9-6-7-14-7-12-3-7-1-51-2-9-11-13-14-5-8v-1h53l10-2 9-4 5-4 7-12 2-7 1-10z" fill="#D44F10"/>
<path transform="translate(512,246)" d="m0 0h7l10 9 50 50-4 4h-2v2l-8 7-7 8-9 10-14 14-8 7-2 4v1l-17 5-16 8-18 12-15 7-4-1-9-12-5-4-6-2-11-1 4-2 11-7 16-16 7-8 8-8 2-4 7-6 7-9 8-10 10-17 5-13 4-18v-6l-5 2-10 10-2-1 14-14z" fill="#D44F10"/>
<path transform="translate(249,527)" d="m0 0 2 1 166-1 1 1v35h2l3 8 8 10 3 4h-32l-3-9-6-11-9-8-11-5-4-1h-12l-10 3-8 5-7 7-6 12-2 6h-68l-7-8z" fill="#F99313"/>
<path transform="translate(376,268)" d="m0 0h16l11 3 9 5 10 8 8 12 3 10 1 14-3 7-10 11-5 5-9 10-13 13h-9l-17-4-10-5-11-11-7-14-2-8v-20l4-12 4-6 7-7 11-7z" fill="#FAFAF6"/>
<path transform="translate(446,445)" d="m0 0h30l10 5 3 4v86l-1 25-4 6-4 3-5 1h-29l-10-8-1-3v-108l4-7z" fill="#F8F8F3"/>
<path transform="translate(619,527)" d="m0 0h21l63 1-3 5-1 10 2 6-1 9-8 7-2 5-10-10-7-5-12-4h-9l-13 4-9 7-6 7-4 9-2 5-34 1h-38l-1-4 1-37 1-14 1-1z" fill="#F7A31B"/>
<path transform="translate(231,469)" d="m0 0h1l1 109 5 10 8 7 9 4h58l11-1 4 9 3 6 8 7v2h-123l-1 2-4-13-5-15-6-24-4-27v-28h1l1 5 9-11 8-8 9-6 7-1z" fill="#E85C12"/>
<path transform="translate(509,250)" d="m0 0h4l1 6-5 21-6 14-10 16-9 10-7 9-3 3h-2l-2 5-13 13-7 8-12 12-10 6-16 1h-28v-1l7-1 3-7 19-19 5-6h2l2-4 8-9 4-5 8-7 7-7 8-7 14-15 11-12 8-7 5-5 5-3z" fill="#F26B18"/>
<path transform="translate(302,433)" d="m0 0h34l20 1 8 4 7 9 2 7v8l-7 14-6 5-3 1h-68l-9-6-6-9-1-5v-8l3-9 6-7 8-4z" fill="#21263E"/>
<path transform="translate(641,378)" d="m0 0 17 1 18 3 33 8 9 6 8 8 4 8 2 11-1 11-4 8-6 4-3 1h-65l2-5 4-8 1-3v-13l-4-16-5-10-9-12z" fill="#FAFAF5"/>
<path transform="translate(465,596)" d="m0 0 27 2 76 1h20l31-1 3 8 5 9 6 7h-153l-33 1 1-3 6-4h2l2-4 4-7z" fill="#E75C12"/>
<path transform="translate(601,286)" d="m0 0 5 1 10 8 7 8 9 9v2l3 1 7 8 30 30 8 7 5 6h-12l-23-3-74-2 6-9 11-22 7-21 1-7z" fill="#D44F10"/>
<path transform="translate(599,286)" d="m0 0 3 1v15l-3 14-6 16-11 22-4 6-6 2-48-1 2-4 7-7 8-7 14-14 7-8 9-10h2v-2l8-7 7-8 5-5z" fill="#F6A11B"/>
<path transform="translate(563,395)" d="m0 0h42l7 2 5 4 3 6v8l-3 6-6 6-5 1h-57l-6-3-5-6-1-3v-9l3-5 6-5 3-1z" fill="#25273D"/>
<path transform="translate(227,496)" d="m0 0h3v40l-1 7-2 7v15l-4 13-2 3-1 6-2 4-6 3h-3v3l-3-1-6-24-4-27v-28h1l1 5 9-11 8-8 9-6z" fill="#D44F10"/>
<path transform="translate(435,527)" d="m0 0 2 1 52-1v13l-1 25-4 6-4 3-5 1h-29l-10-8-1-3z" fill="#F6A11C"/>
<path transform="translate(784,528)" d="m0 0h1l1 32 4 6v2h2v2h2l2 10 7-1 5-1 1 2h3l2-12h2l1-6 1 3-5 26-10 30-29 1h-31l1-4 8-7 4-8 2-5h10l10-4 8-9 2-5v-11l-3-5v-2h-2l-1-4h2z" fill="#E95D12"/>
<path transform="translate(408,527)" d="m0 0h9l1 1v35h2l3 8 8 10 3 4h-32l-3-9-6-11-6-6 1-3 1-1-4-1v-2l-5-1-2-5v-3l8-4 9-1 6-5 1-3-18-1v2h-2l1 4-7 1v2l-2 2-1 2h-2l-1-3-2-1v-2l-13-1-1-4 1-1-32-1v-1z" fill="#F7A31C"/>
<path transform="translate(587,474)" d="m0 0 5 1 11 11 9 11 5 6v5l-3 2-18 1h-32l-4-3v-31l3-2z" fill="#21263E"/>
<path transform="translate(355,539)" d="m0 0 4 1 1 10-13 4-8 5-7 7-6 12-2 6h-35l-28-1 4-2 17-1 4-3h4l-10-2-1-2 10 1 2 1v-4h2l4-8 3-2-3-5v-6l5-6 6-1 5 3 3 4v7l-3 3-1 3h2l1-2 4 1 1-4 1-1-3-1 1-6h6l5 3h4l6-1v-3l3-3 8-1v-2z" fill="#F59F1B"/>
<path transform="translate(465,596)" d="m0 0 12 1v2h8l6 1 39 1 1 3 4 1 5 3 2 6h-3l-1 4-4 1h-72v2l-8 1-1 1h-6l1-3 6-4h2l2-4 4-7z" fill="#F16B19"/>
<path transform="translate(509,527)" d="m0 0 20 1v47l-1 9h-35l-1-2 9-9 3-8 2-37z" fill="#F59E1B"/>
<path transform="translate(695,342)" d="m0 0h49l5 4 2 4-1 7-5 6-2 1h-53l-5-4-2-4 1-7 4-5z" fill="#F6F5F0"/>
<path transform="translate(670,398)" d="m0 0h8l30 5 6 3 4 5 3 8-1 9-2 2h-14l-22-2-7-3-3-4-5-14 1-7z" fill="#23273D"/>
<path transform="translate(358,569)" d="m0 0h9l8 4 4 5 3 7v9l-4 8-6 6-7 2h-7l-10-5-6-9-1-10 3-8 4-5z" fill="#FAFAF5"/>
<path transform="translate(650,569)" d="m0 0h13l8 5 5 8 1 10-3 8-5 6-6 3-7 1-9-3-6-5-5-8v-11l4-7 7-6z" fill="#FAFAF6"/>
<path transform="translate(272,342)" d="m0 0h45l6 4 3 5-1 5-4 6-3 2h-48l-4-7v-10z" fill="#F7F6F0"/>
<path transform="translate(453,460)" d="m0 0h18l5 2 3 4v29l-4 4h-24l-3-2-1-32z" fill="#21263E"/>
<path transform="translate(599,286)" d="m0 0 3 1v15l-3 14-6 16-5 10-5-1-3-2v-3l-11 2-3 1-5-2v-4l3-1 1-5 1-3h2v-2l4-3 4-1 1-9 2-5 11-12 3-3z" fill="#F99413"/>
<path transform="translate(739,570)" d="m0 0h31l2 3v5l-4 5-2 1h-58l-8-2 1-6 4-4 2-1z" fill="#F9F9F4"/>
<path transform="translate(742,447)" d="m0 0h2l-2 5-7 8-1 7-12 5-5-1v-2l-4-2-8-1h-24v6l1 4-2 7 1 3h2l4 6 1 1h18l6 2 15 1v1h-39l-9-11-13-14-5-8v-1h53l10-2 9-4 5-4z" fill="#E75C12"/>
<path transform="translate(296,601)" d="m0 0h27l4 3 4 9 8 7v2h-11l-5-1-30-2 1-5 6-5 6-3v2l8-1 2 2v-3l-9 1v-2l9-1h-12v-2h-8z" fill="#F06918"/>
<path transform="translate(481,313)" d="m0 0 5 1-6 9-6 6h-2l-2 5-13 13-7 8-12 12-10 6-4-1-3-1 1-3 8-7 4-5 10-7h2v-2l5-4 3-3 11-7 7-9z" fill="#F99313"/>
<path transform="translate(701,528)" d="m0 0 2 1-3 4-1 10 2 6-1 9-8 7-2 5-10-10-7-5 4-4 4-2 5-4 4-4h2l1-12z" fill="#F89013"/>
<path transform="translate(273,543)" d="m0 0h6l6 5 1 2v7l-4 5-3 2-7-1-6-6v-7l4-6z" fill="#F4F2EC"/>
<path transform="translate(304,543)" d="m0 0 7 1 5 6v7l-8 7-5-1-5-5-1-2v-6l5-6z" fill="#F7F7F2"/>
<path transform="translate(220,480)" d="m0 0 2 2v3l1 3 3 1-1 7-5 5-4 2-4-1-7-3-2-1v-3h2l2-5z" fill="#F99513"/>
<path transform="translate(616,599)" d="m0 0 2 1 1 6h3l5 9 2 5h-22l1-2-6-1 2-7 7 1 2-4 1-7z" fill="#F16A18"/>
<path transform="translate(742,447)" d="m0 0h2l-2 5-7 8-1 7-12 5-5-1v-2l-4-2-8-1v-2l-37 1-1-2h47l10-2 9-4 5-4z" fill="#E45A12"/>
<path transform="translate(323,528)" d="m0 0h76v1h-15v2h-2l1 4-7 1v2l-2 2-1 2h-2l-1-3-2-1v-2l-13-1-1-4 1-1-32-1z" fill="#F8A51C"/>
<path transform="translate(400,388)" d="m0 0h24l3 6-45 1v-5l1-1z" fill="#F6F5EF"/>
<path transform="translate(462,619)" d="m0 0h54l1 1 57 1v1h-120v-1h8z" fill="#d51"/>
<path transform="translate(711,539)" d="m0 0h10l2 4v6l-3 4h-8l-4-4-1-5 2-4z" fill="#F7F7F1"/>
<path transform="translate(546,577)" d="m0 0h2l1 3h13l4-1h9v2l-2 1 11 1v1h-38l-1-4z" fill="#EE7F13"/>
<path transform="translate(308,574)" d="m0 0 7 3 3 3 3 2h-30v-1h6l-1-3 9-1v-2z" fill="#FA9513"/>
<path transform="translate(753,609)" d="m0 0 2 2-8 8h56v2l-29 1h-31l1-4 8-7z" fill="#D44F10"/>
<path transform="translate(393,613)" d="m0 0 4 1 7 7v1h-18l2-4 4-2z" fill="#D95210"/>
<path transform="translate(701,528)" d="m0 0 2 1-3 4-1 10 2 6-1 9-3 1-1-8v-16l2-5z" fill="#E15A12"/>
<path transform="translate(703,493)" d="m0 0 9 2 15 1v1h-39v-3z" fill="#E55A12"/>
<path transform="translate(446,379)" d="m0 0 4 2 3 4v2l5 1 8 1v2l-7 3-4-1-9-12z" fill="#E35912"/>
<path transform="translate(322,345)" d="m0 0 6 1 3 5v4h-2v2l-5 3-2 2 1-4 2-4-1-5z" fill="#F99514"/>
<path transform="translate(440,529)" d="m0 0h13l-2 4-3 3-4-1-3-3z" fill="#FA9513"/>
<path transform="translate(250,529)" d="m0 0h1l1 8 1 3-2 30h-1z" fill="#F8A41B"/>
<path transform="translate(756,608)" d="m0 0 2 1-1 10-11 1 5-6h2l1-5z" fill="#F36C19"/>
<path transform="translate(686,614)" d="m0 0 4 2 5 4v2h-12l-1-4z" fill="#E46718"/>
<path transform="translate(426,332)" d="m0 0 1 2-1 2h-2v2h-2l-2 4-11 11-1 2h-2l-1 2 1-4 7-7 5-6h2l2-4z" fill="#E75C12"/>
<path transform="translate(784,528)" d="m0 0h1l1 32 2 3-1 4-2-5h-2l-1-4h2z" fill="#E55B12"/>
<path transform="translate(314,548)" d="m0 0 2 2v7l-8 7-5-1-3-2 1-2 3 2 7-1 2-5z" fill="#DACEBD"/>
<path transform="translate(322,598)" d="m0 0 3 1 1 5-3-2-27-1v-1z" fill="#E35912"/>
<path transform="translate(433,369)" d="m0 0 3 1v2l8 4-3 1-6-2-11-1 4-2z" fill="#E35A12"/>
<path transform="translate(599,286)" d="m0 0 3 1v15h-1l-1-9-2-1-4 1 2-5z" fill="#F26B18"/>
<path transform="translate(344,551)" d="m0 0 5 1-4 3-9 6-1-4z" fill="#EE8114"/>
<path transform="translate(429,580)" d="m0 0 5 5h-32v-1h28z" fill="#D65110"/>
<path transform="translate(697,543)" d="m0 0h2l2 6-1 9-2-1z" fill="#D44F10"/>
<path transform="translate(782,616)" d="m0 0 14 1 1 2h-20l3-2z" fill="#F36C19"/>
<path transform="translate(360,549)" d="m0 0h14l8 4v2l-9-3-13-2z" fill="#EB7B17"/>
<path transform="translate(394,614)" d="m0 0 5 4v2h-9l2-4z" fill="#F16917"/>
<path transform="translate(674,354)" d="m0 0 5 2 3 3v2l4 1 2 5-4-2-10-10z" fill="#C8BAAA"/>
<path transform="translate(427,580)" d="m0 0 1 2h2v2h-15l2-1v-2l10 1z" fill="#F99514"/>
<path transform="translate(381,551)" d="m0 0 8 3 1 4h-3l-5-2z" fill="#F58F15"/>
<path transform="translate(501,367)" d="m0 0 3 1-13 8-3-1 8-6z" fill="#E35912"/>
<path transform="translate(234,586)" d="m0 0 6 4 4 4-1 2-5-3-1-3h-2z" fill="#EC6516"/>
<path transform="translate(440,317)" d="m0 0v3l-4 4h-2l-2 5-4 2 2-4 4-5z" fill="#EC6114"/>
<path transform="translate(817,562)" d="m0 0 1 3-3 12-2 1 1-10h2z" fill="#E75C12"/>
<path transform="translate(683,561)" d="m0 0 3 1v2l4-1 2-1-1 5-2 3z" fill="#E37F25"/>
<path transform="translate(753,609)" d="m0 0 2 2-8 8 1 2h-4l1-4 7-6z" fill="#E55D13"/>
</svg>
